<?xml version="1.0" encoding="UTF-8" standalone="no"?>
<!DOCTYPE svg PUBLIC "-//W3C//DTD SVG 1.1//EN"
 "http://www.w3.org/Graphics/SVG/1.1/DTD/svg11.dtd">
<!-- Generated by graphviz version 2.38.0 (20140413.2041)
 -->
<!-- Title: %3 Pages: 1 -->
<svg width="742pt" height="215pt"
 viewBox="0.00 0.00 741.69 215.00" xmlns="http://www.w3.org/2000/svg" xmlns:xlink="http://www.w3.org/1999/xlink">
<g id="graph0" class="graph" transform="scale(1 1) rotate(0) translate(4 211)">
<title>%3</title>
<polygon fill="white" stroke="none" points="-4,4 -4,-211 737.69,-211 737.69,4 -4,4"/>
<!-- z -->
<g id="node1" class="node"><title>z</title>
<ellipse fill="none" stroke="black" cx="706.69" cy="-115" rx="27" ry="18"/>
<text text-anchor="middle" x="706.69" y="-111.3" font-family="Times,serif" font-size="14.00">z</text>
</g>
<!-- Add (Op 0) -->
<g id="node2" class="node"><title>Add (Op 0)</title>
<polygon fill="none" stroke="black" stroke-width="3" points="643.69,-155 563.69,-155 563.69,-75 643.69,-75 643.69,-155"/>
<text text-anchor="middle" x="603.69" y="-111.3" font-family="Times,serif" font-size="14.00">Add (Op 0)</text>
</g>
<!-- Add (Op 0)&#45;&gt;z -->
<g id="edge1" class="edge"><title>Add (Op 0)&#45;&gt;z</title>
<path fill="none" stroke="black" d="M643.739,-115C652.17,-115 661.05,-115 669.371,-115"/>
<polygon fill="black" stroke="black" points="669.536,-118.5 679.536,-115 669.536,-111.5 669.536,-118.5"/>
</g>
<!-- v1 -->
<g id="node3" class="node"><title>v1</title>
<ellipse fill="none" stroke="black" cx="500.69" cy="-88" rx="27" ry="18"/>
<text text-anchor="middle" x="500.69" y="-84.3" font-family="Times,serif" font-size="14.00">v1</text>
</g>
<!-- v1&#45;&gt;Add (Op 0) -->
<g id="edge2" class="edge"><title>v1&#45;&gt;Add (Op 0)</title>
<path fill="none" stroke="black" d="M526.139,-94.5359C534.458,-96.7599 544.077,-99.3311 553.626,-101.884"/>
<polygon fill="black" stroke="black" points="552.931,-105.321 563.496,-104.522 554.739,-98.5585 552.931,-105.321"/>
</g>
<!-- v2 -->
<g id="node4" class="node"><title>v2</title>
<ellipse fill="none" stroke="black" cx="397.69" cy="-151" rx="27" ry="18"/>
<text text-anchor="middle" x="397.69" y="-147.3" font-family="Times,serif" font-size="14.00">v2</text>
</g>
<!-- v2&#45;&gt;Add (Op 0) -->
<g id="edge3" class="edge"><title>v2&#45;&gt;Add (Op 0)</title>
<path fill="none" stroke="black" d="M424.114,-146.513C456.41,-140.814 512.843,-130.855 553.64,-123.656"/>
<polygon fill="black" stroke="black" points="554.411,-127.074 563.651,-121.889 553.194,-120.18 554.411,-127.074"/>
</g>
<!-- Mul (Op 1) -->
<g id="node5" class="node"><title>Mul (Op 1)</title>
<polygon fill="none" stroke="black" stroke-width="3" points="437.69,-112 357.69,-112 357.69,-32 437.69,-32 437.69,-112"/>
<text text-anchor="middle" x="397.69" y="-68.3" font-family="Times,serif" font-size="14.00">Mul (Op 1)</text>
</g>
<!-- Mul (Op 1)&#45;&gt;v1 -->
<g id="edge4" class="edge"><title>Mul (Op 1)&#45;&gt;v1</title>
<path fill="none" stroke="black" d="M437.739,-78.186C446.421,-79.5614 455.58,-81.0123 464.114,-82.3643"/>
<polygon fill="black" stroke="black" points="463.715,-85.8447 474.14,-83.9525 464.811,-78.9309 463.715,-85.8447"/>
</g>
<!-- v3 -->
<g id="node6" class="node"><title>v3</title>
<ellipse fill="none" stroke="black" cx="294.69" cy="-72" rx="27" ry="18"/>
<text text-anchor="middle" x="294.69" y="-68.3" font-family="Times,serif" font-size="14.00">v3</text>
</g>
<!-- v3&#45;&gt;Mul (Op 1) -->
<g id="edge5" class="edge"><title>v3&#45;&gt;Mul (Op 1)</title>
<path fill="none" stroke="black" d="M321.7,-72C329.514,-72 338.36,-72 347.166,-72"/>
<polygon fill="black" stroke="black" points="347.421,-75.5001 357.421,-72 347.421,-68.5001 347.421,-75.5001"/>
</g>
<!-- y -->
<g id="node7" class="node"><title>y</title>
<ellipse fill="none" stroke="black" cx="294.69" cy="-18" rx="27" ry="18"/>
<text text-anchor="middle" x="294.69" y="-14.3" font-family="Times,serif" font-size="14.00">y</text>
</g>
<!-- y&#45;&gt;Mul (Op 1) -->
<g id="edge6" class="edge"><title>y&#45;&gt;Mul (Op 1)</title>
<path fill="none" stroke="black" d="M316.617,-29.1888C325.918,-34.1616 337.285,-40.2391 348.5,-46.2352"/>
<polygon fill="black" stroke="black" points="346.95,-49.3754 357.419,-51.0038 350.251,-43.2023 346.95,-49.3754"/>
</g>
<!-- Mul (Op 2) -->
<g id="node8" class="node"><title>Mul (Op 2)</title>
<polygon fill="none" stroke="black" stroke-width="3" points="231.69,-207 151.69,-207 151.69,-127 231.69,-127 231.69,-207"/>
<text text-anchor="middle" x="191.69" y="-163.3" font-family="Times,serif" font-size="14.00">Mul (Op 2)</text>
</g>
<!-- Mul (Op 2)&#45;&gt;v2 -->
<g id="edge7" class="edge"><title>Mul (Op 2)&#45;&gt;v2</title>
<path fill="none" stroke="black" d="M232.023,-163.915C269.222,-160.997 324.576,-156.656 360.652,-153.826"/>
<polygon fill="black" stroke="black" points="361.041,-157.307 370.737,-153.036 360.493,-150.328 361.041,-157.307"/>
</g>
<!-- x -->
<g id="node9" class="node"><title>x</title>
<ellipse fill="none" stroke="black" cx="57.8449" cy="-69" rx="27" ry="18"/>
<text text-anchor="middle" x="57.8449" y="-65.3" font-family="Times,serif" font-size="14.00">x</text>
</g>
<!-- x&#45;&gt;Mul (Op 2) -->
<g id="edge8" class="edge"><title>x&#45;&gt;Mul (Op 2)</title>
<path fill="none" stroke="black" d="M76.6261,-82.2167C93.7283,-94.9288 120.335,-114.706 143.551,-131.962"/>
<polygon fill="black" stroke="black" points="141.487,-134.788 151.6,-137.945 145.662,-129.17 141.487,-134.788"/>
</g>
<!-- Mul (Op 3) -->
<g id="node11" class="node"><title>Mul (Op 3)</title>
<polygon fill="none" stroke="black" stroke-width="3" points="231.69,-109 151.69,-109 151.69,-29 231.69,-29 231.69,-109"/>
<text text-anchor="middle" x="191.69" y="-65.3" font-family="Times,serif" font-size="14.00">Mul (Op 3)</text>
</g>
<!-- x&#45;&gt;Mul (Op 3) -->
<g id="edge9" class="edge"><title>x&#45;&gt;Mul (Op 3)</title>
<path fill="none" stroke="black" d="M83.6439,-63.5885C99.9054,-62.3554 121.726,-61.9743 141.423,-62.4452"/>
<polygon fill="black" stroke="black" points="141.381,-65.9456 151.489,-62.7692 141.607,-58.9493 141.381,-65.9456"/>
</g>
<!-- x&#45;&gt;Mul (Op 3) -->
<g id="edge10" class="edge"><title>x&#45;&gt;Mul (Op 3)</title>
<path fill="none" stroke="black" d="M83.6439,-74.4115C99.9054,-75.6446 121.726,-76.0257 141.423,-75.5548"/>
<polygon fill="black" stroke="black" points="141.607,-79.0507 151.489,-75.2308 141.381,-72.0544 141.607,-79.0507"/>
</g>
<!-- constant 10.0 -->
<g id="node10" class="node"><title>constant 10.0</title>
<ellipse fill="none" stroke="black" cx="57.8449" cy="-167" rx="57.6901" ry="18"/>
<text text-anchor="middle" x="57.8449" y="-163.3" font-family="Times,serif" font-size="14.00">constant 10.0</text>
</g>
<!-- constant 10.0&#45;&gt;Mul (Op 2) -->
<g id="edge11" class="edge"><title>constant 10.0&#45;&gt;Mul (Op 2)</title>
<path fill="none" stroke="black" d="M115.907,-167C124.324,-167 132.937,-167 141.183,-167"/>
<polygon fill="black" stroke="black" points="141.391,-170.5 151.391,-167 141.391,-163.5 141.391,-170.5"/>
</g>
<!-- Mul (Op 3)&#45;&gt;v3 -->
<g id="edge12" class="edge"><title>Mul (Op 3)&#45;&gt;v3</title>
<path fill="none" stroke="black" d="M231.739,-70.1599C240.17,-70.4103 249.05,-70.6741 257.371,-70.9212"/>
<polygon fill="black" stroke="black" points="257.437,-74.4246 267.536,-71.2232 257.644,-67.4277 257.437,-74.4246"/>
</g>
</g>
</svg>
